<svg width="40" height="34" viewBox="0 0 40 34" fill="none" xmlns="http://www.w3.org/2000/svg">
<path d="M0.231779 29.6693C-0.0160242 29.8976 -0.0718124 30.266 0.0968497 30.5579L1.69914 33.3339C1.82758 33.557 2.06501 33.6932 2.32189 33.6932H31.1852C31.83 33.6932 32.1492 32.9097 31.6873 32.4583L28.6527 29.4955L8.07976 22.4336L0.231779 29.6693Z" fill="#15A0FF"/>
<path d="M39.8989 32.0056L21.573 0.363213C21.4432 0.138799 21.2019 0 20.9424 0H17.586C17.3252 0 17.0852 0.138799 16.9542 0.36451L5.29436 20.5579C5.06471 20.9548 5.25543 21.462 5.68877 21.6112L8.0799 22.4323L14.4372 16.5716C14.7187 16.3122 15.1534 16.3186 15.4271 16.5859L28.6516 29.4968L39.0296 33.0602C39.6692 33.2781 40.2375 32.5893 39.8989 32.0056Z" fill="#15A0FF"/>
</svg>
